<svg height="512pt" viewBox="0 0 512 512" width="512pt" xmlns="http://www.w3.org/2000/svg"><path d="m236 452c-5.519531 0-10 4.480469-10 10s4.480469 10 10 10 10-4.480469 10-10-4.480469-10-10-10zm0 0"/><path d="m363.070312 303.070312c3.121094-3.121093 3.828126-7.917968 1.738282-11.804687l-99.957032-185.921875c-.085937-.164062-.175781-.324219-.273437-.480469-1.007813-1.6875-2.441406-2.976562-4.089844-3.800781-.578125-.289062-1.1875-.527344-1.828125-.703125-2.34375-.644531-4.921875-.445313-7.246094.753906 0 0-.003906 0-.007812.003907 0 0 0 0-.003906 0-.175782.09375-.355469.191406-.527344.292968-.003906.003906-.003906.003906-.007812.007813-1.644532.980469-2.914063 2.371093-3.742188 3.96875l-99.933594 185.878906c-2.089844 3.886719-1.382812 8.683594 1.738282 11.804687 23.90625 23.90625 37.070312 55.691407 37.070312 89.5v28.199219l-19.699219 78.804688c-.75 2.988281-.078125 6.152343 1.816407 8.582031 1.894531 2.425781 4.804687 3.84375 7.882812 3.84375h160c3.078125 0 5.988281-1.417969 7.882812-3.847656 1.894532-2.425782 2.566407-5.589844 1.816407-8.578125l-19.699219-78.804688v-28.199219c0-32.902343 12.867188-65.292968 37.070312-89.5zm-107.070312-17.070312c5.515625 0 10 4.484375 10 10s-4.484375 10-10 10-10-4.484375-10-10 4.484375-10 10-10zm-87.765625 8.359375 77.765625-144.640625v118c-11.640625 4.128906-20 15.246094-20 28.28125 0 16.542969 13.457031 30 30 30s30-13.457031 30-30c0-13.035156-8.359375-24.152344-20-28.28125v-118l77.765625 144.640625c-24.046875 26.609375-37.765625 61.566406-37.765625 98.210937v19.429688h-100v-19.429688c0-36.644531-13.355469-71.234374-37.765625-98.210937zm20.574219 197.640625 15-60h104.382812l5 20h-37.191406c-5.523438 0-10 4.476562-10 10s4.476562 10 10 10h42.191406l5 20zm0 0"/><path d="m482 60c16.542969 0 30-13.457031 30-30s-13.457031-30-30-30c-13.035156 0-24.152344 8.359375-28.28125 20h-167.71875v-10c0-5.523438-4.476562-10-10-10h-40c-5.523438 0-10 4.476562-10 10v10h-167.71875c-4.128906-11.640625-15.246094-20-28.28125-20-16.542969 0-30 13.457031-30 30s13.457031 30 30 30c13.035156 0 24.152344-8.371094 28.28125-20.011719h102.804688c-73.738282 32.316407-128.492188 100.480469-139.121094 180.011719h-11.964844c-5.523438 0-10 4.476562-10 10v40c0 5.523438 4.476562 10 10 10h40c5.523438 0 10-4.476562 10-10v-40c0-5.523438-4.476562-10-10-10h-7.835938c13.371094-90.632812 89.75-164.558594 183.835938-177.867188v7.867188c0 5.523438 4.476562 10 10 10h40c5.523438 0 10-4.476562 10-10v-7.867188c94.085938 13.308594 170.464844 87.234376 183.835938 177.867188h-7.835938c-5.523438 0-10 4.476562-10 10v40c0 5.523438 4.476562 10 10 10h40c5.523438 0 10-4.476562 10-10v-40c0-5.523438-4.476562-10-10-10h-11.964844c-10.628906-79.53125-65.382812-147.683594-139.117187-180h102.800781c4.128906 11.640625 15.246094 20 28.28125 20zm-452-20c-5.515625 0-10-4.484375-10-10s4.484375-10 10-10 10 4.484375 10 10-4.484375 10-10 10zm10 220h-20v-20h20zm206-220c0-23.980469 0-17.179688 0-20h20v20zm246 220h-20v-20h20zm-10-240c5.515625 0 10 4.484375 10 10s-4.484375 10-10 10-10-4.484375-10-10 4.484375-10 10-10zm0 0"/></svg>