<svg height="512pt" viewBox="0 -5 512.00003 512" width="512pt" xmlns="http://www.w3.org/2000/svg"><path d="m343.554688 41.105469c0 4.414062-3.578126 7.992187-7.988282 7.992187-4.414062 0-7.992187-3.578125-7.992187-7.992187 0-4.410157 3.578125-7.988281 7.992187-7.988281 4.410156 0 7.988282 3.578124 7.988282 7.988281zm0 0"/><path d="m381.863281 41.105469c0 4.414062-3.578125 7.992187-7.992187 7.992187-4.414063 0-7.988282-3.578125-7.988282-7.992187 0-4.410157 3.574219-7.988281 7.988282-7.988281 4.414062 0 7.992187 3.578124 7.992187 7.988281zm0 0"/><path d="m420.171875 41.105469c0 4.414062-3.578125 7.992187-7.992187 7.992187-4.414063 0-7.992188-3.578125-7.992188-7.992187 0-4.410157 3.578125-7.988281 7.992188-7.988281 4.414062 0 7.992187 3.578124 7.992187 7.988281zm0 0"/><path d="m102.753906 246.171875 50.394532-32.957031c.765624-.574219 1.914062-.765625 2.871093-.765625 4.027344 0 9.199219 4.214843 9.199219 9.578125 0 2.300781-1.152344 4.40625-2.875 5.558594l-40.238281 26.441406 40.238281 26.441406c1.722656.957031 2.875 3.0625 2.875 5.554688 0 5.367187-5.171875 9.390624-9.199219 9.390624-.957031 0-2.105469-.191406-2.871093-.765624l-50.394532-32.957032c-2.871094-1.917968-4.214844-5.175781-4.214844-7.664062 0-2.492188 1.34375-5.941406 4.214844-7.855469zm0 0"/><path d="m271.75 166.847656c0 1.148438-.191406 2.105469-.765625 3.0625l-70.320313 140.253906c-1.148437 2.300782-3.640624 3.644532-6.324218 3.644532-4.40625 0-7.472656-3.644532-7.472656-7.089844 0-.957031.191406-1.917969.574218-2.875l70.511719-140.828125c1.148437-2.492187 3.257813-3.449219 5.75-3.449219 3.832031 0 8.046875 2.875 8.046875 7.28125zm0 0"/><path d="m355.671875 261.691406-50.390625 32.957032c-.765625.574218-1.726562.765624-2.683594.765624-4.214844 0-9.195312-4.023437-9.195312-9.390624 0-2.488282 1.148437-4.597657 2.683594-5.554688l40.425781-26.441406-40.425781-26.441406c-1.535157-1.148438-2.683594-3.257813-2.683594-5.558594 0-5.363282 4.980468-9.578125 9.195312-9.578125.957032 0 1.917969.191406 2.683594.765625l50.390625 32.957031c2.875 1.914063 4.214844 5.363281 4.214844 7.855469 0 2.488281-1.148438 5.746094-4.214844 7.664062zm0 0"/><path d="m209.355469 33.605469h-163.128907c-4.140624 0-7.5 3.359375-7.5 7.5 0 4.144531 3.359376 7.5 7.5 7.5h163.128907c4.140625 0 7.5-3.355469 7.5-7.5 0-4.140625-3.359375-7.5-7.5-7.5zm0 0"/><path d="m266.5625 443.878906h-242.371094c-5.066406 0-9.191406-4.125-9.191406-9.191406v-352.472656h428.878906v167.335937c0 4.140625 3.355469 7.5 7.5 7.5 4.140625 0 7.5-3.359375 7.5-7.5v-225.359375c0-13.339844-10.855468-24.191406-24.195312-24.191406h-410.492188c-13.339844 0-24.191406 10.851562-24.191406 24.191406v410.492188c0 13.339844 10.851562 24.195312 24.191406 24.195312h242.371094c4.140625 0 7.5-3.359375 7.5-7.5 0-4.144531-3.359375-7.5-7.5-7.5zm-251.5625-419.6875c0-5.066406 4.125-9.191406 9.191406-9.191406h410.492188c5.070312 0 9.195312 4.125 9.195312 9.191406v43.023438h-428.878906zm0 0"/><path d="m505.78125 307.988281-31.140625-31.136719c-4.011719-4.011718-9.339844-6.21875-15.015625-6.21875h-.035156c-5.6875.007813-11.023438 2.234376-15.03125 6.269532l-25.589844 25.757812c-20.867188 18.992188-65.640625 23.328125-83.949219 24.3125-12.203125.65625-22.488281 9.484375-25.011719 21.46875l-28.9375 137.457032c-.917968 4.367187.40625 8.859374 3.542969 12.027343l.046875.046875c.046875.046875.097656.09375.144532.140625 2.496093 2.421875 5.785156 3.734375 9.1875 3.734375.910156 0 1.828124-.09375 2.742187-.285156l137.457031-28.9375c11.984375-2.523438 20.8125-12.808594 21.464844-25.011719.984375-18.3125 5.324219-63.105469 24.328125-83.964843l25.746094-25.574219c4.035156-4.007813 6.261719-9.347657 6.269531-15.03125.007812-5.6875-2.199219-11.03125-6.21875-15.054688zm-65.101562 138.820313c-.292969 5.433594-4.230469 10.011718-9.578126 11.136718l-121.355468 25.546876 50.355468-50.355469c4.792969 2.851562 10.207032 4.28125 15.621094 4.28125 7.8125 0 15.628906-2.976563 21.578125-8.925781 5.765625-5.761719 8.941407-13.429688 8.941407-21.582032 0-8.148437-3.175782-15.8125-8.941407-21.578125-5.761719-5.765625-13.429687-8.941406-21.578125-8.941406-8.152344 0-15.816406 3.175781-21.582031 8.941406-5.765625 5.761719-8.941406 13.429688-8.941406 21.578125 0 5.589844 1.492187 10.949219 4.289062 15.625l-50.347656 50.351563 25.546875-121.355469c1.125-5.347656 5.707031-9.285156 11.136719-9.578125 22.949219-1.230469 63.296875-5.996094 87.820312-23.800781l40.835938 40.835937c-17.804688 24.523438-22.566407 64.871094-23.800781 87.820313zm-80.480469-39.898438c0-4.144531 1.617187-8.042968 4.546875-10.972656 2.933594-2.933594 6.828125-4.546875 10.976562-4.546875 4.144532 0 8.042969 1.613281 10.972656 4.546875 2.933594 2.929688 4.546876 6.828125 4.546876 10.972656 0 4.148438-1.613282 8.042969-4.546876 10.976563-6.042968 6.042969-15.871093 6.050781-21.921874.023437-.007813-.007812-.019532-.015625-.027344-.023437-.007813-.007813-.015625-.019531-.023438-.027344-2.917968-2.925781-4.523437-6.816406-4.523437-10.949219zm134.960937-79.476562-20.578125 20.441406-39.824219-39.824219 20.441407-20.578125c1.179687-1.183594 2.746093-1.839844 4.414062-1.839844h.011719c1.667969 0 3.234375.644532 4.410156 1.824219l31.140625 31.140625c1.179688 1.179688 1.828125 2.75 1.824219 4.417969-.003906 1.671875-.65625 3.238281-1.839844 4.417969zm0 0"/></svg>